<?xml version="1.0" encoding="UTF-8" standalone="no"?>
<svg
   xmlns:dc="http://purl.org/dc/elements/1.1/"
   xmlns:cc="http://creativecommons.org/ns#"
   xmlns:rdf="http://www.w3.org/1999/02/22-rdf-syntax-ns#"
   xmlns:svg="http://www.w3.org/2000/svg"
   xmlns="http://www.w3.org/2000/svg"
   id="svg3983"
   version="1.1"
   viewBox="0 0 104.58198 100.80501"
   height="100.80501mm"
   width="104.58198mm">
  <defs
     id="defs3977">
    <clipPath
       id="clipPath510"
       clipPathUnits="userSpaceOnUse">
      <path
         id="path508"
         d="m 495.869,870.331 h 168.254 v -66.62 H 495.869 Z" />
    </clipPath>
    <clipPath
       id="clipPath526"
       clipPathUnits="userSpaceOnUse">
      <path
         id="path524"
         d="M 544.277,882.402 H 716.912 V 831.466 H 544.277 Z" />
    </clipPath>
    <clipPath
       id="clipPath658"
       clipPathUnits="userSpaceOnUse">
      <path
         id="path656"
         d="M 647.439,1074.98 H 666.3 v -13.82 h -18.861 z" />
    </clipPath>
    <clipPath
       id="clipPath674"
       clipPathUnits="userSpaceOnUse">
      <path
         id="path672"
         d="m 652.498,1074.98 h 20.413 v -15.73 h -20.413 z" />
    </clipPath>
    <clipPath
       id="clipPath782"
       clipPathUnits="userSpaceOnUse">
      <path
         id="path780"
         d="m 1019.13,1093.31 h 63.02 v -53.25 h -63.02 z" />
    </clipPath>
    <clipPath
       id="clipPath806"
       clipPathUnits="userSpaceOnUse">
      <path
         id="path804"
         d="m 1034.81,1095.74 h 31.14 v -20.01 h -31.14 z" />
    </clipPath>
    <clipPath
       id="clipPath822"
       clipPathUnits="userSpaceOnUse">
      <path
         id="path820"
         d="m 1014.19,1086.65 h 40.93 v -27.31 h -40.93 z" />
    </clipPath>
    <clipPath
       id="clipPath782-3"
       clipPathUnits="userSpaceOnUse">
      <path
         id="path780-6"
         d="m 1019.13,1093.31 h 63.02 v -53.25 h -63.02 z" />
    </clipPath>
    <clipPath
       id="clipPath806-7"
       clipPathUnits="userSpaceOnUse">
      <path
         id="path804-5"
         d="m 1034.81,1095.74 h 31.14 v -20.01 h -31.14 z" />
    </clipPath>
    <clipPath
       id="clipPath822-3"
       clipPathUnits="userSpaceOnUse">
      <path
         id="path820-5"
         d="m 1014.19,1086.65 h 40.93 v -27.31 h -40.93 z" />
    </clipPath>
    <clipPath
       id="clipPath36"
       clipPathUnits="userSpaceOnUse">
      <path
         id="path34"
         d="m 1036.74,676.603 h 12.16 v -19.62 h -12.16 z" />
    </clipPath>
    <clipPath
       id="clipPath68"
       clipPathUnits="userSpaceOnUse">
      <path
         id="path66"
         d="m 1058.37,682.954 h 5.71 v -10.876 h -5.71 z" />
    </clipPath>
  </defs>
  <metadata
     id="metadata3980">
    <rdf:RDF>
      <cc:Work
         rdf:about="">
        <dc:format>image/svg+xml</dc:format>
        <dc:type
           rdf:resource="http://purl.org/dc/dcmitype/StillImage" />
        <dc:title></dc:title>
      </cc:Work>
    </rdf:RDF>
  </metadata>
  <g
     transform="translate(-52.471697,-25.379632)"
     id="layer1">
    <g
       id="g6584"
       transform="matrix(0.35277777,0,0,-0.35277777,-99.964165,302.08203)">
      <g
         id="g848"
         transform="translate(685.87121,655.89383)">
        <path
           d="m 0,0 c 0,-65.309 -52.944,-118.25 -118.25,-118.25 -65.309,0 -118.251,52.941 -118.251,118.25 0,65.306 52.942,118.25 118.251,118.25 C -52.944,118.25 0,65.306 0,0"
           style="fill:#d8d5ad;fill-opacity:1;fill-rule:nonzero;stroke:none"
           id="path850" />
      </g>
      <g
         id="g852"
         transform="translate(493.32431,576.57453)">
        <path
           d="m 0,0 c 11.639,5.627 25.015,3.529 34.386,-4.203 l -26.957,-24.01 4.405,-6.232 29.885,21.526 c 0.375,-0.656 0.76,-1.309 1.092,-1.995 C 50.504,-30.831 43.813,-50.036 27.894,-57.73 11.977,-65.424 -7.228,-58.733 -14.92,-42.816 -22.606,-26.899 -15.913,-7.692 0,0 m 88.463,73.641 c 16.975,15.547 28.04,9.838 32.469,6.072 6.282,-17.469 6.143,-31.767 -0.581,-42.457 C 111.526,23.246 93.47,18.329 84.45,16.695 79.682,28.79 70.971,57.614 88.463,73.641 m 13.17,88.52 c 0.807,1.641 1.582,3.238 2.271,4.856 2.881,-6.381 5.896,-12.706 8.81,-19.077 -0.932,-0.964 -1.749,-1.878 -2.487,-2.757 -2.64,5.749 -6.024,10.973 -10.206,15.563 0.645,0.201 1.233,0.665 1.612,1.415 m 70.535,-70.505 c 15.922,7.695 35.122,1.003 42.813,-14.917 7.694,-15.914 1.005,-35.115 -14.913,-42.81 -15.917,-7.692 -35.119,-1 -42.81,14.914 -5.405,11.189 -3.688,23.995 3.338,33.294 l 22.137,-22.651 c 1.46,-1.491 3.665,-1.817 5.447,-0.957 0.445,0.217 0.868,0.512 1.246,0.875 1.865,1.83 1.901,4.825 0.079,6.7 l -22.142,22.658 c 1.498,1.073 3.088,2.064 4.805,2.894 M 34.078,-70.515 c 23.006,11.12 32.639,38.778 21.521,61.78 -0.699,1.446 -1.458,2.831 -2.283,4.17 L 68.673,6.493 c 0,0 0.203,1.031 6.344,-1.116 2.621,-0.912 5.137,0.027 7.196,1.375 4.541,0.567 14.598,2.293 24.795,7.222 7.911,3.821 15.882,9.577 21.327,18.193 8.297,13.15 8.807,30.028 1.716,50.129 2.442,8.299 5.714,15.429 9.361,21.517 L 150.601,92.37 c -11.237,-13.517 -14.268,-32.853 -6.123,-49.709 11.116,-23.002 38.78,-32.633 61.775,-21.52 23,11.117 32.64,38.781 21.525,61.777 -11.118,23.005 -38.781,32.633 -61.779,21.52 -3.139,-1.519 -6.007,-3.364 -8.63,-5.447 l -12.552,12.84 c 12.096,15.935 25.439,22.232 25.439,22.232 l 6.305,-0.32 17.2,6.685 c -15.57,6.756 -53.911,-14.324 -53.911,-14.324 l 7.701,5.461 c 0,0 -4.652,8.9 -15.195,17.503 -10.544,8.604 -19.33,12.368 -19.33,12.368 -0.234,-0.833 -0.241,-1.684 -0.163,-2.523 -3.603,7.689 -7.199,15.383 -10.3,23.301 -0.042,0.11 -0.115,0.164 -0.167,0.259 -0.192,0.875 -0.849,1.598 -2.033,1.607 -3.818,0.016 -7.469,-0.18 -11.027,-1.689 -0.969,-0.411 -1.48,-1.562 -1.297,-2.556 0.82,-4.502 2.541,-8.802 4.985,-12.654 -0.675,0.529 -1.341,1.059 -2.047,1.557 -1.081,0.761 -2.16,0.435 -2.871,-0.305 -1.053,-0.303 -1.98,-1.212 -1.84,-2.603 0.221,-2.245 -0.677,-4.264 0.312,-6.511 1.556,-3.538 6.681,-3.843 9.909,-3.998 0.614,-0.031 1.1,0.189 1.516,0.497 3.715,-4.481 6.673,-9.534 8.972,-15.079 -5.339,-8.798 -0.12,-11.948 -0.12,-11.948 l -0.251,-3.081 c 0,0 -12.395,6.895 -28.885,-20.232 C 61.227,78.353 37.533,79.091 18.996,77.099 0.456,75.104 -58.388,48.403 -58.388,48.403 c 30.704,9.501 54.684,-7.935 54.684,-7.935 l -29.316,3.013 c -9.521,-5.764 -1.793,-15.029 -1.793,-15.029 L 19.065,23.145 C 25.7,30.071 39.292,25.49 39.292,25.49 L 55.316,14.429 45.089,5.316 C 31.528,17.649 11.343,21.242 -6.174,12.772 -29.178,1.656 -38.811,-26.002 -27.696,-48.999 -16.581,-71.997 11.078,-81.628 34.078,-70.515"
           style="fill:#754c24;fill-opacity:1;fill-rule:nonzero;stroke:none"
           id="path854" />
      </g>
      <g
         id="g856"
         transform="translate(612.64071,646.43633)">
        <path
           d="m 0,0 -37.554,-18.149 6.615,-29.55 C 10.308,-36.466 0,0 0,0"
           style="fill:#754c24;fill-opacity:1;fill-rule:nonzero;stroke:none"
           id="path858" />
      </g>
      <g
         id="g860"
         transform="translate(542.41751,741.90603)">
        <path
           d="m 0,0 -7.069,-6.318 6.193,-9.869 9.314,10.742 z"
           style="fill:#fccdae;fill-opacity:1;fill-rule:nonzero;stroke:none"
           id="path862" />
      </g>
      <g
         id="g864"
         transform="translate(528.28331,673.23813)">
        <path
           d="m 0,0 c 0,0 -13.72,-12.397 -29.577,-18.585 -5.729,-2.236 -10.966,0.6 -10.966,0.6 -0.514,1.669 -1.79,31.746 19.482,57.971 6.617,8.159 16.338,16.624 27.763,22.874 0,0 10.133,-13.856 8.66,-21.556 C 13.887,33.609 4.988,33.475 0,0"
           style="fill:#242424;fill-opacity:1;fill-rule:nonzero;stroke:none"
           id="path866" />
      </g>
      <g
         id="g868"
         transform="translate(533.31991,735.43003)">
        <path
           d="m 0,0 1.928,1.296 c 0,0 3.867,-4.959 6.724,-10.653 l -0.214,-1.775 z"
           style="fill:#303030;fill-opacity:1;fill-rule:nonzero;stroke:none"
           id="path870" />
      </g>
      <g
         id="g872"
         transform="translate(545.05431,737.57993)">
        <path
           d="m 0,0 c 0,0 5.384,-2.849 8.507,-3.263 3.123,-0.418 12.245,-0.095 12.532,0.79 0.285,0.887 0.474,8.417 -0.351,12.071 0,0 3.366,0.579 3.854,0.646 0,0 -3.443,6.969 -5.618,10.466 0,0 -1.185,6.464 -4.51,9.626 -3.327,3.162 -22.29,1.84 -25.738,-7.383 C -14.77,13.727 0,0 0,0"
           style="fill:#fccdae;fill-opacity:1;fill-rule:nonzero;stroke:none"
           id="path874" />
      </g>
      <g
         id="g876"
         transform="translate(549.07381,752.19173)">
        <path
           d="m 0,0 c 0,0 -0.812,-2.867 0,0 0.812,2.867 3.874,5.023 2.334,9.142 -1.538,4.118 8.99,2.199 10.522,3.057 1.535,0.862 2.343,10.196 -4.838,12.047 0,0 2.11,-1.462 2.666,-4.126 0,0 -1.506,4.477 -8.909,4.507 0,0 2.33,-1.202 3.758,-4.18 0,0 -4.455,3.9 -10.524,1.463 0,0 2.589,-0.118 4.084,-1.249 0,0 -5.377,0.729 -14.142,-6.49 -8.77,-7.219 1.002,-17.617 2.589,-19.754 1.583,-2.136 2.655,-5.091 0.926,-6.25 0,0 4.391,-1.043 4.806,1.085 0.415,2.132 -0.192,6.12 -0.192,6.12 0,0 2.783,1.697 3.24,1.42 0.459,-0.278 3.133,-3.697 3.133,-3.697 z"
           style="fill:#000000;fill-opacity:1;fill-rule:nonzero;stroke:none"
           id="path878" />
      </g>
      <g
         id="g880"
         transform="translate(544.54791,752.34113)">
        <path
           d="m 0,0 c 1.589,-1.5 1.88,-3.771 0.649,-5.075 -1.227,-1.304 -3.514,-1.145 -5.1,0.354 -1.591,1.5 -1.883,3.772 -0.654,5.076 C -3.873,1.659 -1.589,1.5 0,0"
           style="fill:#fccdae;fill-opacity:1;fill-rule:nonzero;stroke:none"
           id="path882" />
      </g>
      <g
         id="g884"
         transform="translate(561.09771,754.91483)">
        <path
           d="m 0,0 c 0.315,-0.781 -0.064,-1.668 -0.845,-1.98 -0.78,-0.315 -1.668,0.065 -1.982,0.846 -0.316,0.78 0.067,1.666 0.846,1.981 C -1.2,1.159 -0.312,0.781 0,0"
           style="fill:#1c1b1a;fill-opacity:1;fill-rule:nonzero;stroke:none"
           id="path886" />
      </g>
      <g
         id="g888"
         transform="translate(560.02591,754.91193)">
        <path
           d="m 0,0 c 0.106,-0.27 -0.023,-0.576 -0.292,-0.685 -0.271,-0.108 -0.579,0.023 -0.686,0.291 -0.106,0.269 0.023,0.577 0.293,0.684 C -0.415,0.399 -0.11,0.269 0,0"
           style="fill:#ffffff;fill-opacity:1;fill-rule:nonzero;stroke:none"
           id="path890" />
      </g>
      <g
         id="g892"
         transform="translate(560.67391,758.56863)">
        <path
           d="m 0,0 c 0.131,-0.328 -0.029,-0.701 -0.357,-0.833 l -4.091,-1.645 c -0.328,-0.131 -0.703,0.029 -0.834,0.355 -0.132,0.33 0.027,0.704 0.355,0.836 l 4.093,1.644 C -0.506,0.488 -0.133,0.33 0,0"
           style="fill:#632704;fill-opacity:1;fill-rule:nonzero;stroke:none"
           id="path894" />
      </g>
      <g
         id="g896"
         transform="translate(560.66751,743.31673)">
        <path
           d="m 0,0 c 0,0 2.099,-0.421 5.624,0.351 0,0 0.099,-1.089 0.133,-1.935 0,0 -3.036,-0.345 -5.757,1.584"
           style="fill:#ffffff;fill-opacity:1;fill-rule:nonzero;stroke:none"
           id="path898" />
      </g>
      <g
         id="g900"
         transform="translate(596.74521,714.29183)">
        <path
           d="m 0,0 c -2.985,-2.788 -24.828,-18.415 -27.104,-21.425 0,0 -19.367,21.09 -26.212,26.594 L -63.832,-7.777 c 0,0 24.252,-17.204 30.054,-20.818 5.805,-3.62 6.28,-3.642 9.563,-1.373 2.984,2.065 23.59,23.084 27.407,27.193 C 1.105,-1.379 1.284,-2.056 0,0"
           style="fill:#242424;fill-opacity:1;fill-rule:nonzero;stroke:none"
           id="path902" />
      </g>
      <g
         id="g904"
         transform="translate(549.81651,616.89293)">
        <path
           d="M 0,0 1.005,6.875 10.173,8.43 8.716,1.992 Z"
           style="fill:#fccdae;fill-opacity:1;fill-rule:nonzero;stroke:none"
           id="path906" />
      </g>
      <g
         id="g908"
         transform="translate(549.17291,615.09943)">
        <path
           d="M 0,0 0.192,4.172 10.286,5.703 9.982,2.757 4.326,-1.616 Z"
           style="fill:#9e978f;fill-opacity:1;fill-rule:nonzero;stroke:none"
           id="path910" />
      </g>
      <g
         id="g912"
         transform="translate(550.85801,606.34993)">
        <path
           d="m 0,0 27.88,11.199 c 0,0 -1.621,3.684 -3.492,4.102 C 22.518,15.715 10.982,14.038 9.413,13.703 7.846,13.364 6.082,9.884 3.044,8.661 0.006,7.441 -1.498,9.439 -2.673,9.866 -3.814,10.284 -2.495,2.153 0,0"
           style="fill:#5e2e10;fill-opacity:1;fill-rule:nonzero;stroke:none"
           id="path914" />
      </g>
      <g
         id="g916"
         transform="translate(579.18951,616.42953)">
        <path
           d="m 0,0 -27.878,-11.205 -0.454,1.125 27.881,11.199 z"
           style="fill:#b8825f;fill-opacity:1;fill-rule:nonzero;stroke:none"
           id="path918" />
      </g>
      <g
         id="g920"
         transform="translate(549.36531,619.27183)">
        <path
           d="m 0,0 10.093,1.531 c 0,0 16.271,36.622 18.369,42.285 2.099,5.667 0.635,9.94 -3.895,9.76 -4.525,-0.177 -47.914,-0.451 -50.114,-1.11 -2.202,-0.659 -29.483,-16.554 -29.483,-16.554 0,0 3.823,-8.574 9.989,-8.952 19.794,-1.208 54.405,9.186 54.405,9.186 z"
           style="fill:#116399;fill-opacity:1;fill-rule:nonzero;stroke:none"
           id="path922" />
      </g>
      <g
         id="g924"
         transform="translate(524.99861,745.56913)">
        <path
           d="m 0,0 c 0,0 17.172,2.745 21.301,6.098 4.128,3.352 7.712,7.579 12.059,7.693 4.347,0.114 9.69,1.743 9.235,3.856 -0.46,2.111 -3.616,18.406 -17.782,18.302 0,0 -15.804,-0.082 -21.897,-7.553 0,0 -6.155,-2.57 -2.916,-28.396"
           style="fill:#603813;fill-opacity:1;fill-rule:nonzero;stroke:none"
           id="path926" />
      </g>
      <g
         id="g928"
         transform="translate(540.69151,749.12673)">
        <path
           d="m 0,0 c 0,0 9.149,-14.514 15.319,-15.622 0,0 2.751,-0.265 1.841,2.358 0,0 -10.026,6.762 -13.685,14.563 C 3.475,1.299 0.557,3.196 0,0"
           style="fill:#603813;fill-opacity:1;fill-rule:nonzero;stroke:none"
           id="path930" />
      </g>
      <g
         id="g932"
         transform="translate(602.87511,713.83723)">
        <path
           d="M 0,0 C -0.744,-0.14 -1.227,-0.759 -1.073,-1.381 -0.918,-2 -1.088,-2.55 -0.341,-2.409 c 0,0 2.484,0.784 3.237,1.296 C 3.902,-0.424 4.103,0.171 3.95,0.79 3.795,1.415 3.064,1.799 2.313,1.662 Z"
           style="fill:#fcd9b1;fill-opacity:1;fill-rule:nonzero;stroke:none"
           id="path934" />
      </g>
      <g
         id="g936"
         transform="translate(604.85751,717.03643)">
        <path
           d="m 0,0 c -0.59,-0.415 -0.675,-1.141 -0.187,-1.625 0.486,-0.479 0.135,-1.498 0.723,-1.083 L 3.44,-0.79 C 4.027,-0.375 4.113,0.351 3.627,0.835 3.141,1.317 2.268,1.373 1.68,0.958 Z"
           style="fill:#fcd9b1;fill-opacity:1;fill-rule:nonzero;stroke:none"
           id="path938" />
      </g>
      <g
         id="g940"
         transform="translate(603.17781,718.85093)">
        <path
           d="m 0,0 c -0.508,-0.482 -0.456,-1.21 0.119,-1.623 0.568,-0.414 1.445,-0.356 1.95,0.126 l 1.725,1.274 C 4.303,0.263 4.25,0.991 3.68,1.403 3.107,1.818 2.233,1.76 1.725,1.275 Z"
           style="fill:#fcd9b1;fill-opacity:1;fill-rule:nonzero;stroke:none"
           id="path942" />
      </g>
      <g
         id="g944"
         transform="translate(600.59381,720.01303)">
        <path
           d="m 0,0 c -0.428,-0.5 -0.286,-1.189 0.304,-1.534 0.594,-0.344 0.959,-0.93 1.387,-0.427 l 1.972,1.757 c 0.426,0.5 0.755,1.9 0.159,2.245 C 3.225,2.385 2.397,2.26 1.976,1.757 Z"
           style="fill:#fcd9b1;fill-opacity:1;fill-rule:nonzero;stroke:none"
           id="path946" />
      </g>
      <g
         id="g948"
         transform="translate(596.87801,718.55553)">
        <path
           d="M 0,0 C -0.359,-0.449 -0.215,-1.046 0.315,-1.333 0.845,-1.62 1.564,-1.489 1.922,-1.04 L 4.774,2.162 C 5.132,2.61 4.989,3.205 4.459,3.495 3.925,3.778 3.207,3.65 2.854,3.202 Z"
           style="fill:#fcd9b1;fill-opacity:1;fill-rule:nonzero;stroke:none"
           id="path950" />
      </g>
      <g
         id="g952"
         transform="translate(595.99521,718.08573)">
        <path
           d="m 0,0 c -0.983,-1.656 -1.459,-3.446 0.526,-5.2 1.986,-1.754 4.87,-2.522 7.012,-0.833 l 0.796,0.622 c 2.141,1.687 2.271,4.477 0.288,6.231 C 6.638,2.574 3.754,3.342 1.608,1.653 1.608,1.653 0.663,1.119 0,0"
           style="fill:#fcd9b1;fill-opacity:1;fill-rule:nonzero;stroke:none"
           id="path954" />
      </g>
    </g>
  </g>
</svg>
